<svg xmlns="http://www.w3.org/2000/svg" xml:space="preserve" viewBox="0 0 984.6 440.8"><path d="m422 60 37-58c-64 4-123 21-173 46l25 47c27-10 56-17 86-20 10-1 19-6 25-15z" style="fill:#abd038"/><path d="M655 152c14 7 27 9 46 9h136c-32-52-86-96-154-125l-104 70c44 21 62 40 76 46z" style="fill:#ee332d"/><path d="m472 1-24 73c27 1 54 5 78 12 15 4 31 3 44-4l100-51A484 484 0 0 0 472 1z" style="fill:#f2ba1a"/><path d="M149 175h33c8 0 17-4 23-10 17-19 39-36 63-50 9-5 14-15 12-25l-5-36c-57 31-100 72-126 121z" style="fill:#3dae2b"/><path d="M918 202h-7v-6h21v6h-7v19h-7zm45-6v25h-7v-19l-5 19h-5l-5-19v19h-6v-25h9l5 17 4-17m-791 26c-8-9-18-16-29-22-12-5-25-8-39-8s-27 3-38 8a88 88 0 0 0-47 54 120 120 0 0 0 18 110c8 9 17 17 29 22 11 5 24 8 38 8s27-3 39-8c11-5 21-13 29-22 7-9 13-20 18-32s6-25 6-39-2-27-6-39c-5-12-11-23-18-32zm-13 98c-2 9-6 17-10 24s-11 12-18 16c-8 4-17 6-27 6s-19-2-26-6-14-9-18-16c-5-7-8-15-10-24a107 107 0 0 1 0-54c2-9 5-17 10-24s11-12 18-16 16-6 26-6c11 0 19 2 27 6s13 10 18 16c4 7 8 15 10 24a107 107 0 0 1 0 54zm179-52c-5-7-12-12-20-16s-18-6-29-6c-9 0-17 2-25 5-7 4-13 10-18 18v-19h-29v191h31v-70c2 4 5 7 9 10l11 7 13 4 13 1a55 55 0 0 0 46-22c5-7 8-15 11-24s3-18 3-27c0-10-1-20-4-29-2-9-7-17-12-23zm-16 70c-2 5-4 11-7 15s-7 9-12 12c-5 2-11 4-18 4a35 35 0 0 1-28-14c-4-5-6-10-8-16s-3-12-3-19c0-15 4-27 10-36s17-14 29-14c7 0 12 2 17 4s9 7 12 11 6 10 7 16a71 71 0 0 1 1 37zm162-67a64 64 0 0 0-100-3 83 83 0 0 0-18 52 88 88 0 0 0 18 53c6 6 13 11 21 15s18 5 29 5c8 0 15-1 22-3s13-5 18-9c6-4 11-9 15-15s6-13 8-20h-29c-3 7-7 13-12 17s-13 6-22 6c-6 0-12-1-16-4-5-2-9-5-12-9-3-3-5-8-7-13s-2-10-2-15h102a80 80 0 0 0-15-57zm-87 36c0-5 1-10 3-14l7-12a36 36 0 0 1 40-7c5 2 8 4 11 8l7 11 3 14zm228-49c-9-8-21-12-36-12-9 0-18 2-25 7-8 4-14 10-18 18l-1-1v-20h-29v139h31v-82l2-14c1-4 4-9 7-12l10-8c4-2 9-3 14-3 9 0 16 3 20 8s7 13 7 24v87h31v-95c0-16-5-28-13-36zm166 56c-2 12-6 22-13 29-6 8-16 11-28 11-9 0-16-1-22-5-6-3-11-8-15-13s-7-13-9-20-3-15-3-23 1-16 3-23c2-8 5-15 9-20 4-6 8-11 15-14a46 46 0 0 1 36-3 40 40 0 0 1 21 17c2 3 4 7 4 12l1 2h44v-3c-1-11-5-21-9-30s-12-16-19-22c-8-6-16-10-25-13a101 101 0 0 0-70 3c-12 5-22 13-30 22s-14 20-19 32a122 122 0 0 0 0 79c4 13 11 23 19 32s18 17 30 22a97 97 0 0 0 72 2 77 77 0 0 0 44-41c4-10 7-21 8-33l1-2h-45zm61-118v194h138v-40h-92V196z" style="fill:#010101"/></svg>